<?xml version="1.0" standalone="no"?>
<!DOCTYPE svg PUBLIC "-//W3C//DTD SVG 20010904//EN"
 "http://www.w3.org/TR/2001/REC-SVG-20010904/DTD/svg10.dtd">
<svg version="1.0" xmlns="http://www.w3.org/2000/svg"
 width="310.000000pt" height="310.000000pt" viewBox="0 0 310.000000 310.000000"
 preserveAspectRatio="xMidYMid meet">
<metadata>
Created by potrace 1.15, written by Peter Selinger 2001-2017
</metadata>
<g transform="translate(0.000000,310.000000) scale(0.100000,-0.100000)"
fill="#ffffff" stroke="none">
<path d="M1463 3049 c205 -286 335 -566 401 -861 14 -62 28 -141 32 -176 6
-57 9 -64 38 -79 17 -8 46 -26 64 -40 l32 -24 29 20 c47 34 197 198 271 296
89 119 141 204 211 350 l58 119 -22 24 c-25 27 -150 123 -213 164 -77 50 -226
119 -328 153 -159 53 -236 66 -421 72 l-169 6 17 -24z"/>
<path d="M1160 3025 c-412 -112 -777 -402 -958 -762 l-31 -61 33 -93 c70 -195
141 -343 228 -472 l43 -64 50 24 c118 54 273 16 355 -89 22 -27 45 -67 51 -89
l12 -40 46 7 c135 18 366 83 489 135 38 17 42 22 35 41 -4 13 -8 61 -8 108 0
74 3 91 27 130 36 62 94 115 151 140 54 24 54 23 31 141 -64 342 -227 683
-454 949 -14 17 -19 17 -100 -5z"/>
<path d="M2686 2442 c-123 -250 -334 -525 -541 -703 -38 -33 -40 -38 -42 -93
-3 -109 -72 -212 -174 -261 -34 -16 -36 -21 -48 -93 -7 -41 -27 -128 -45 -192
l-32 -117 42 -36 c49 -43 79 -100 95 -179 l11 -57 67 -7 c100 -11 352 2 481
25 96 17 170 36 381 98 35 10 128 247 166 424 26 120 26 477 0 599 -26 123
-79 274 -133 381 -44 89 -151 256 -178 278 -9 8 -21 -9 -50 -67z"/>
<path d="M66 1908 c-24 -111 -36 -218 -36 -320 l0 -116 48 -16 c39 -13 134
-36 248 -61 17 -4 23 1 28 20 5 19 -7 45 -54 116 -68 104 -156 266 -191 352
-12 31 -26 57 -30 57 -3 0 -10 -15 -13 -32z"/>
<path d="M1507 1353 c-135 -55 -322 -107 -467 -129 -108 -16 -110 -17 -130
-52 -25 -41 -34 -31 120 -133 87 -59 310 -179 330 -179 4 0 20 20 38 45 40 58
110 102 184 117 l58 12 20 60 c24 76 60 224 60 252 0 16 -11 25 -43 38 -23 9
-47 16 -52 15 -6 -1 -59 -21 -118 -46z"/>
<path d="M50 1274 c0 -9 9 -51 20 -95 72 -281 211 -521 416 -720 143 -137 241
-205 417 -289 l107 -52 48 40 c92 79 248 251 308 341 l26 40 -21 43 c-11 24
-23 57 -27 74 -5 26 -15 34 -72 59 -143 60 -311 158 -448 261 l-71 54 -57 -11
c-127 -23 -260 42 -318 156 -11 22 -21 41 -22 42 -1 1 -49 12 -107 23 -57 11
-125 27 -151 35 -43 12 -48 12 -48 -1z"/>
<path d="M2660 590 c-191 -46 -482 -69 -665 -52 l-100 9 -40 -37 c-22 -21 -60
-48 -85 -60 -53 -27 -154 -37 -202 -21 -29 10 -35 9 -48 -7 -120 -153 -163
-204 -230 -275 -91 -96 -95 -87 48 -108 111 -15 422 -6 522 16 219 48 427 142
605 274 97 71 308 284 278 280 -4 -1 -42 -9 -83 -19z"/>
</g>
</svg>
